<svg data-name="Scroll Symbol" xmlns="http://www.w3.org/2000/svg" width="22.4" height="45.471" viewBox="0 0 22.4 45.471">
    <path data-name="Vereinigungsmenge 2" d="M4.008 10.107.411 6.161a1.137 1.137 0 0 1-.093-.091 1.273 1.273 0 0 1 0-1.683L4 .349a1.018 1.018 0 0 1 1.534 0 1.273 1.273 0 0 1 0 1.683l-2.919 3.2 2.918 3.2a1.265 1.265 0 0 1 0 1.672 1.012 1.012 0 0 1-1.525 0z" transform="rotate(-90 25.71 19.76)" style="fill:#fff"/>
    <g data-name="Rechteck 12" style="stroke:#fff;stroke-width:2.5px;fill:none">
        <rect width="22.4" height="34.618" rx="11.2" style="stroke:none"/>
        <rect x="1.25" y="1.25" width="19.9" height="32.118" rx="9.95" style="fill:none"/>
    </g>
    <path data-name="Pfad 5" d="M4948 857.733v3.643" transform="translate(-4936.823 -849.416)" style="stroke-linecap:round;stroke:#fff;stroke-width:2.5px;fill:none"/>
</svg>
